<?xml version="1.0" encoding="utf-8"?>
<!-- Generator: Adobe Illustrator 16.0.0, SVG Export Plug-In . SVG Version: 6.00 Build 0)  -->
<!DOCTYPE svg PUBLIC "-//W3C//DTD SVG 1.1 Basic//EN" "http://www.w3.org/Graphics/SVG/1.1/DTD/svg11-basic.dtd">
<svg version="1.1" baseProfile="basic" id="Layer_1"
	 xmlns="http://www.w3.org/2000/svg" xmlns:xlink="http://www.w3.org/1999/xlink" x="0px" y="0px" width="256px" height="256px"
	 viewBox="0 0 256 256" xml:space="preserve">
<rect y="171" fill="#40B54A" width="256" height="85"/>
<rect fill="#1BBBEE" width="256" height="171"/>
<g>
	<polygon fill="none" points="120,180.002 120,180.001 120,180 100.001,180 100.001,180.001 100,180.001 100,180.002 	"/>
	<polygon fill="none" points="160,180.002 160,180.001 160,180 140.001,180 140.001,180.001 140,180.001 140,180.002 	"/>
	<polygon fill="none" points="80,180.001 80,180 60.001,180 60.001,180.001 60,180.001 60,180.002 80,180.002 	"/>
	<rect x="60.001" y="200" fill="none" width="19.999" height="0.001"/>
	<polygon fill="none" points="60.001,220 60.001,220.001 60,220.001 60,220.002 80,220.002 80,220.001 80,220 	"/>
	<rect x="100.001" y="200" fill="none" width="19.999" height="0.001"/>
	<rect x="140.001" y="200" fill="none" width="19.999" height="0.001"/>
	<rect x="180.001" y="200" fill="none" width="19.999" height="0.001"/>
	<polygon fill="none" points="140.001,220 140.001,220.001 140,220.001 140,220.002 160,220.002 160,220.001 160,220 	"/>
	<polygon fill="none" points="180.001,180.001 180,180.001 180,180.002 200,180.002 200,180.001 200,180 180.001,180 	"/>
	<polygon fill="none" points="100.001,220 100.001,220.001 100,220.001 100,220.002 120,220.002 120,220.001 120,220 	"/>
	<polygon fill="none" points="180.001,220.001 180,220.001 180,220.002 200,220.002 200,220.001 200,220 180.001,220 	"/>
	<polygon fill="#EF3B3A" points="220,171 200,171 200,180 200,180.001 220,180.001 220.001,180.001 220.001,180 220,180 	"/>
	<polygon fill="#F8B0B2" points="200,180.002 200,200 220,200 220,180.002 220,180.001 200,180.001 	"/>
	<polygon fill="#F37E81" points="220,171 220,180 220.001,180 233,180 233,171 	"/>
	<polygon fill="#FFFFFF" points="220.001,200 233,200 233,180.002 220,180.002 220,200 	"/>
	<polygon fill="#EF3B3A" points="200,200 200,200.001 200,220 200,220.001 220,220.001 220.001,220.001 220.001,220 220,220 
		220,200.001 220.001,200.001 220.001,200 220,200 	"/>
	<path fill="#F8B0B2" d="M200,220.002V231h18.001c0.68,0,1.344-0.061,1.999-0.148v-10.85v-0.001L200,220.002L200,220.002z"/>
	<path fill="#F37E81" d="M220,220L220,220h12.444c0.353-1.275,0.556-2.612,0.556-3.999v-16h-12.999H220V220z"/>
	<path fill="#FFFFFF" d="M232.443,220.002H220v10.85C225.996,230.051,230.863,225.714,232.443,220.002z"/>
	<polygon fill="#EF3B3A" points="160,180.001 180,180.001 180.001,180.001 180.001,180 180,180 180,171 160,171 160,180 	"/>
	<polygon fill="#F8B0B2" points="160,200 180,200 180,180.002 180,180.001 160,180.001 160,180.002 	"/>
	<polygon fill="#F37E81" points="180.001,180 200,180 200,171 180,171 180,180 	"/>
	<polygon fill="#FFFFFF" points="180,200 180.001,200 200,200 200,180.002 180,180.002 	"/>
	<polygon fill="#EF3B3A" points="180.001,220 180,220 180,200.001 180.001,200.001 180.001,200 180,200 160,200 160,200.001 
		160,220 160,220.001 180,220.001 180.001,220.001 	"/>
	<polygon fill="#F8B0B2" points="180,220.001 160,220.001 160,220.002 160,231 180,231 180,220.002 	"/>
	<polygon fill="#F37E81" points="180,200.001 180,220 180.001,220 200,220 200,200.001 180.001,200.001 	"/>
	<rect x="180" y="220.002" fill="#FFFFFF" width="20" height="10.998"/>
	<polygon fill="#EF3B3A" points="120,180.001 140,180.001 140.001,180.001 140.001,180 140,180 140,171 120,171 120,180 	"/>
	<polygon fill="#F8B0B2" points="120,200 140,200 140,180.002 140,180.001 120,180.001 120,180.002 	"/>
	<polygon fill="#F37E81" points="140.001,180 160,180 160,171 140,171 140,180 	"/>
	<polygon fill="#FFFFFF" points="140,180.002 140,200 140.001,200 160,200 160,180.002 	"/>
	<polygon fill="#EF3B3A" points="140.001,220 140,220 140,200.001 140.001,200.001 140.001,200 140,200 120,200 120,200.001 
		120,220 120,220.001 140,220.001 140.001,220.001 	"/>
	<polygon fill="#F8B0B2" points="140,220.001 120,220.001 120,220.002 120,231 140,231 140,220.002 	"/>
	<polygon fill="#F37E81" points="140,200.001 140,220 140.001,220 160,220 160,200.001 140.001,200.001 	"/>
	<rect x="140" y="220.002" fill="#FFFFFF" width="20" height="10.998"/>
	<polygon fill="#EF3B3A" points="80,180.001 100,180.001 100.001,180.001 100.001,180 100,180 100,171 80,171 80,180 	"/>
	<polygon fill="#F8B0B2" points="80,200 100,200 100,180.002 100,180.001 80,180.001 80,180.002 	"/>
	<polygon fill="#F37E81" points="100.001,180 120,180 120,171 100,171 100,180 	"/>
	<polygon fill="#FFFFFF" points="100,180.002 100,200 100.001,200 120,200 120,180.002 	"/>
	<polygon fill="#EF3B3A" points="100.001,220 100,220 100,200.001 100.001,200.001 100.001,200 100,200 80,200 80,200.001 80,220 
		80,220.001 100,220.001 100.001,220.001 	"/>
	<polygon fill="#F8B0B2" points="100,220.001 80,220.001 80,220.002 80,231 100,231 100,220.002 	"/>
	<polygon fill="#F37E81" points="100,200.001 100,220 100.001,220 120,220 120,200.001 100.001,200.001 	"/>
	<rect x="100" y="220.002" fill="#FFFFFF" width="20" height="10.998"/>
	<polygon fill="#EF3B3A" points="60.001,180.001 60.001,180 60,180 60,171 40,171 40,180 40,180.001 60,180.001 	"/>
	<polygon fill="#F8B0B2" points="60,180.002 60,180.001 40,180.001 40,180.002 40,200 60,200 	"/>
	<polygon fill="#F37E81" points="60.001,180 80,180 80,171 60,171 60,180 	"/>
	<polygon fill="#FFFFFF" points="80,180.002 60,180.002 60,200 60.001,200 80,200 	"/>
	<polygon fill="#EF3B3A" points="60.001,220.001 60.001,220 60,220 60,200.001 60.001,200.001 60.001,200 60,200 40,200 40,200.001 
		40,220 40,220.001 60,220.001 	"/>
	<polygon fill="#F8B0B2" points="60,220.001 40,220.001 40,220.002 40,231 60,231 60,220.002 	"/>
	<polygon fill="#F37E81" points="80,200.001 60.001,200.001 60,200.001 60,220 60.001,220 80,220 	"/>
	<rect x="60" y="220.002" fill="#FFFFFF" width="20" height="10.998"/>
	<rect x="23" y="171" fill="#F37E81" width="17" height="9"/>
	<rect x="23" y="180.002" fill="#FFFFFF" width="17" height="19.998"/>
	<path fill="#F37E81" d="M23,200.001v16c0,1.387,0.204,2.724,0.556,3.999H40v-19.999H23z"/>
	<path fill="#FFFFFF" d="M23.557,220.002C25.31,226.338,31.104,231,38,231h2v-10.998H23.557z"/>
</g>
<g>
	<g>
		<path fill="#FFFFFF" d="M128.132,19.778h-0.264c-31.293,0-56.757,25.453-56.757,56.742c0,20.508,9.34,47.567,27.757,80.443
			c13.655,24.371,27.511,43.037,27.641,43.221c0.39,0.516,0.992,0.816,1.646,0.816c0.01,0,0.026,0,0.048,0
			c0.665-0.008,1.283-0.35,1.643-0.902c0.139-0.209,13.885-20.979,27.449-46.367c18.316-34.276,27.594-60.257,27.594-77.21
			C184.889,45.231,159.423,19.778,128.132,19.778L128.132,19.778z M154.328,77.906c0,14.514-11.814,26.331-26.329,26.331
			c-14.513,0-26.329-11.817-26.329-26.331c0-14.52,11.816-26.327,26.329-26.327C142.514,51.579,154.328,63.386,154.328,77.906
			L154.328,77.906z M154.328,77.906"/>
	</g>
</g>
<g>
</g>
<g>
</g>
<g>
</g>
<g>
</g>
<g>
</g>
<g>
</g>
</svg>
